<svg style="transition:.3s" viewBox="0 0 1440 490" xmlns="http://www.w3.org/2000/svg" opacity="0.5">
  <defs>
    <linearGradient id="prefix__a" x1="0" x2="0" y1="1" y2="0">
      <stop stop-color="#004f5f" offset="0%"/>
      <stop stop-color="#00a7da" offset="100%"/>
    </linearGradient>
  </defs>
  <path fill="url(#prefix__a)" d="M0 0l40 8.2C80 16 160 33 240 57.2 320 82 400 114 480 179.7 560 245 640 343 720 351.2c80 7.8 160-73.2 240-147C1040 131 1120 65 1200 89.8c80 24.2 160 139.2 240 171.5 80 32.7 160-16.3 240-16.3s160 49 240 24.5 160-122.5 240-130.7c80-7.8 160 73.2 240 73.5 80-.3 160-81.3 240-106.1 80-24.2 160 7.8 240 8.1 80-.3 160-32.3 240-57.1 80-24.2 160-41.2 240-49 80-8.2 160-8.2 240 8.1 80 16.7 160 48.7 240 106.2s160 138.5 240 196 160 89.5 240 40.8c80-49.3 160-179.3 240-179.6 80 .3 160 130.3 240 138.8s160-106.5 240-130.7c80-24.8 160 41.2 240 73.5 80 32.7 160 32.7 240 57.2s160 73.5 200 98l40 24.5v49H0z"/>
  <defs>
    <linearGradient id="prefix__b" x1="0" x2="0" y1="1" y2="0">
      <stop stop-color="#00516e" offset="0%"/>
      <stop stop-color="#00ace1" offset="100%"/>
    </linearGradient>
  </defs>
  <path fill="url(#prefix__b)" d="M0 98l40 40.8C80 180 160 261 240 310.3c80 48.7 160 65.7 240 8.2S640 131 720 65.3C800 0 880 0 960 57.2 1040 114 1120 229 1200 294s160 82 240 24.5S1600 131 1680 81.7c80-48.7 160-16.7 240 8.1 80 24.2 160 41.2 240 81.7s160 106.5 240 114.3c80 8.2 160-40.8 240-24.5 80 16.7 160 97.7 240 122.5 80 24.2 160-7.8 240-49 80-40.8 160-89.8 240-147C3440 131 3520 65 3600 65.3c80-.3 160 65.7 240 73.5 80 8.2 160-40.8 240-40.8s160 49 240 81.7c80 32.3 160 49.3 240 73.5 80 24.8 160 56.8 240 65.3s160-8.5 240-65.3C5120 196 5200 98 5280 65.3c80-32.3 160-.3 240 24.5 80 24.2 160 41.2 200 49l40 8.2v343H0z" transform="translate(0 50)" opacity=".5"/>
</svg>